<svg width="159" height="42" viewBox="0 0 159 42" fill="none" xmlns="http://www.w3.org/2000/svg">
<path d="M56.034 31.208C54.6647 31.208 53.4513 30.922 52.394 30.35C51.354 29.7607 50.5393 28.946 49.95 27.906C49.378 26.8487 49.092 25.6267 49.092 24.24V19.56C49.092 18.1733 49.378 16.96 49.95 15.92C50.5393 14.8627 51.354 14.048 52.394 13.476C53.4513 12.8867 54.6647 12.592 56.034 12.592H58.79C60.1593 12.592 61.364 12.8867 62.404 13.476C63.4613 14.048 64.276 14.8627 64.848 15.92C65.4373 16.96 65.732 18.1733 65.732 19.56V24.24C65.732 25.6267 65.4373 26.8487 64.848 27.906C64.276 28.946 63.4613 29.7607 62.404 30.35C61.364 30.922 60.1593 31.208 58.79 31.208H56.034ZM58.79 28.036C59.7953 28.036 60.6013 27.672 61.208 26.944C61.832 26.216 62.144 25.2627 62.144 24.084V19.716C62.144 18.5373 61.832 17.584 61.208 16.856C60.6013 16.128 59.7953 15.764 58.79 15.764H56.034C55.0287 15.764 54.214 16.128 53.59 16.856C52.9833 17.584 52.68 18.5373 52.68 19.716V24.084C52.68 25.2627 52.9833 26.216 53.59 26.944C54.214 27.672 55.0287 28.036 56.034 28.036H58.79ZM68.3225 18.026H71.5985V19.586C71.9798 19.0487 72.4738 18.624 73.0805 18.312C73.6871 17.9827 74.2938 17.818 74.9005 17.818H76.4605C77.8471 17.818 78.9565 18.2513 79.7885 19.118C80.6378 19.9847 81.0625 21.1287 81.0625 22.55V31H77.5265V22.68C77.5265 22.1427 77.3791 21.7093 77.0845 21.38C76.8071 21.0507 76.4431 20.886 75.9925 20.886H74.4325C73.8258 20.886 73.2798 21.1113 72.7945 21.562C72.3265 21.9953 72.0145 22.5673 71.8585 23.278V31H68.3225V18.026ZM88.9563 31.208C87.8643 31.208 86.8936 31.0087 86.0443 30.61C85.2123 30.194 84.5623 29.622 84.0943 28.894C83.6263 28.1487 83.3923 27.2993 83.3923 26.346V22.992C83.3923 21.9693 83.6263 21.068 84.0943 20.288C84.5623 19.508 85.2123 18.9013 86.0443 18.468C86.8936 18.0347 87.8643 17.818 88.9563 17.818H91.0363C92.7003 17.818 94.035 18.286 95.0403 19.222C96.0456 20.158 96.5483 21.406 96.5483 22.966V25.722H86.9283V26.346C86.9283 26.918 87.1103 27.3773 87.4743 27.724C87.8383 28.0707 88.3323 28.244 88.9563 28.244H90.9843C91.591 28.244 92.0763 28.114 92.4403 27.854C92.8216 27.5767 93.0123 27.2213 93.0123 26.788H96.4963C96.4963 27.6547 96.2623 28.426 95.7943 29.102C95.3263 29.778 94.6676 30.298 93.8183 30.662C92.9863 31.026 92.0243 31.208 90.9323 31.208H88.9563ZM93.0643 23.174V22.966C93.0643 22.29 92.8823 21.7527 92.5183 21.354C92.1543 20.938 91.669 20.73 91.0623 20.73H88.9563C88.3323 20.73 87.8296 20.9467 87.4483 21.38C87.067 21.8133 86.8763 22.3853 86.8763 23.096V23.174H93.0643ZM104.508 31.208C102.601 31.208 101.11 30.6793 100.036 29.622C98.9609 28.5473 98.4235 27.0567 98.4235 25.15H101.96C101.96 26.0513 102.185 26.762 102.636 27.282C103.104 27.7847 103.745 28.036 104.56 28.036H107.446C108.208 28.036 108.824 27.88 109.292 27.568C109.777 27.2387 110.02 26.8053 110.02 26.268V25.384C110.02 24.5347 109.396 24.006 108.148 23.798L103.364 22.992C101.804 22.732 100.616 22.238 99.8015 21.51C99.0042 20.7647 98.6055 19.82 98.6055 18.676V17.22C98.6055 16.3013 98.8482 15.4953 99.3335 14.802C99.8362 14.0913 100.538 13.5453 101.44 13.164C102.358 12.7827 103.416 12.592 104.612 12.592H107.55C108.676 12.592 109.673 12.826 110.54 13.294C111.406 13.762 112.074 14.4207 112.542 15.27C113.027 16.102 113.27 17.0727 113.27 18.182H109.734C109.734 17.454 109.534 16.8733 109.136 16.44C108.737 15.9893 108.208 15.764 107.55 15.764H104.612C103.884 15.764 103.294 15.92 102.844 16.232C102.41 16.544 102.194 16.96 102.194 17.48V18.182C102.194 19.0487 102.792 19.586 103.988 19.794L108.746 20.626C110.323 20.9033 111.528 21.3973 112.36 22.108C113.192 22.8013 113.608 23.7027 113.608 24.812V26.528C113.608 27.4467 113.348 28.2613 112.828 28.972C112.325 29.6827 111.614 30.2373 110.696 30.636C109.777 31.0173 108.711 31.208 107.498 31.208H104.508ZM121.674 31C120.149 31 119.031 30.6533 118.32 29.96C117.609 29.2667 117.254 28.192 117.254 26.736V21.042H114.966V18.026H117.358V14.1H120.79V18.026H124.17V21.042H120.79V26.58C120.79 27.0653 120.877 27.4207 121.05 27.646C121.241 27.8713 121.535 27.984 121.934 27.984H124.17V31H121.674ZM130.473 31.208C129.121 31.208 128.029 30.87 127.197 30.194C126.365 29.518 125.949 28.6253 125.949 27.516V26.554C125.949 25.462 126.383 24.5867 127.249 23.928C128.116 23.252 129.26 22.914 130.681 22.914H132.267C132.718 22.914 133.203 22.9747 133.723 23.096C134.243 23.2173 134.72 23.382 135.153 23.59V22.238C135.153 21.8047 135.006 21.458 134.711 21.198C134.434 20.9207 134.061 20.782 133.593 20.782H131.357C130.872 20.782 130.482 20.8947 130.187 21.12C129.893 21.3453 129.745 21.6487 129.745 22.03H126.313C126.313 20.7647 126.773 19.7507 127.691 18.988C128.627 18.208 129.849 17.818 131.357 17.818H133.593C135.119 17.818 136.349 18.2253 137.285 19.04C138.221 19.8373 138.689 20.9033 138.689 22.238V31H135.413V29.44C134.997 29.9773 134.486 30.4107 133.879 30.74C133.273 31.052 132.675 31.208 132.085 31.208H130.473ZM132.345 28.504C132.987 28.504 133.559 28.3393 134.061 28.01C134.564 27.6807 134.928 27.2387 135.153 26.684V26.242C134.876 26.034 134.486 25.8693 133.983 25.748C133.498 25.6267 132.978 25.566 132.423 25.566H130.785C130.369 25.566 130.031 25.67 129.771 25.878C129.511 26.086 129.381 26.3633 129.381 26.71V27.386C129.381 27.7153 129.52 27.984 129.797 28.192C130.092 28.4 130.473 28.504 130.941 28.504H132.345ZM147.217 31C145.692 31 144.574 30.6533 143.863 29.96C143.152 29.2667 142.797 28.192 142.797 26.736V21.042H140.509V18.026H142.901V14.1H146.333V18.026H149.713V21.042H146.333V26.58C146.333 27.0653 146.42 27.4207 146.593 27.646C146.784 27.8713 147.078 27.984 147.477 27.984H149.713V31H147.217Z" fill="#1A2643"/>
<path d="M0 38H25.6869C25.6869 38 25.6869 33.5654 25.6869 28.6267H9.46931L0 38Z" fill="#1BC773"/>
<path d="M34.9999 15.4437C34.9999 15.4437 25.6869 14.725 25.6869 15.4437C25.6869 15.8394 25.6869 22.607 25.6869 28.6288H34.9999V15.4437Z" fill="#1BC773"/>
<path d="M35.0001 3H9.31311C9.31311 3 9.31311 7.43462 9.31311 12.3733H25.5328L35.0001 3Z" fill="#1BC773"/>
<path d="M0 25.5564C0 25.5564 9.31305 26.275 9.31305 25.5564C9.31305 25.1606 9.31305 18.3931 9.31305 12.3712H0V25.5564Z" fill="#1BC773"/>
<path d="M9.31305 12.3733V3L0 12.3733H9.31305Z" fill="#83EEBA"/>
<path d="M22.5306 15.5353H12.5092V25.4502H22.5306V15.5353Z" fill="#1BC773"/>
<path d="M31.2253 37.146V38H28.2118V32.9215H29.2618V37.146H31.2253ZM36.6888 35.459C36.6888 35.83 36.6258 36.1742 36.4998 36.4915C36.3762 36.8088 36.2 37.083 35.9713 37.314C35.745 37.545 35.472 37.727 35.1523 37.86C34.8327 37.9907 34.478 38.056 34.0883 38.056C33.6987 38.056 33.344 37.9907 33.0243 37.86C32.7047 37.727 32.4305 37.545 32.2018 37.314C31.9732 37.083 31.7958 36.8088 31.6698 36.4915C31.5462 36.1742 31.4843 35.83 31.4843 35.459C31.4843 35.088 31.5462 34.745 31.6698 34.43C31.7958 34.1127 31.9732 33.8385 32.2018 33.6075C32.4305 33.3765 32.7047 33.1957 33.0243 33.065C33.344 32.932 33.6987 32.8655 34.0883 32.8655C34.478 32.8655 34.8327 32.932 35.1523 33.065C35.472 33.1957 35.745 33.3777 35.9713 33.611C36.2 33.842 36.3762 34.1162 36.4998 34.4335C36.6258 34.7485 36.6888 35.0903 36.6888 35.459ZM35.6143 35.459C35.6143 35.193 35.5793 34.955 35.5093 34.745C35.4393 34.5327 35.3378 34.353 35.2048 34.206C35.0742 34.0567 34.9143 33.9435 34.7253 33.8665C34.5387 33.7872 34.3263 33.7475 34.0883 33.7475C33.8503 33.7475 33.6368 33.7872 33.4478 33.8665C33.2588 33.9435 33.0978 34.0567 32.9648 34.206C32.8342 34.353 32.7338 34.5327 32.6638 34.745C32.5938 34.955 32.5588 35.193 32.5588 35.459C32.5588 35.7273 32.5938 35.9677 32.6638 36.18C32.7338 36.39 32.8342 36.5685 32.9648 36.7155C33.0978 36.8625 33.2588 36.9757 33.4478 37.055C33.6368 37.132 33.8503 37.1705 34.0883 37.1705C34.3263 37.1705 34.5387 37.132 34.7253 37.055C34.9143 36.9757 35.0742 36.8625 35.2048 36.7155C35.3378 36.5685 35.4393 36.39 35.5093 36.18C35.5793 35.9677 35.6143 35.7273 35.6143 35.459ZM40.9837 36.7505C41.042 36.7505 41.091 36.7715 41.1307 36.8135L41.5472 37.258C41.3418 37.5193 41.0863 37.7177 40.7807 37.853C40.4773 37.9883 40.1157 38.056 39.6957 38.056C39.3153 38.056 38.9735 37.9918 38.6702 37.8635C38.3668 37.7328 38.109 37.552 37.8967 37.321C37.6843 37.09 37.521 36.8158 37.4067 36.4985C37.2923 36.1812 37.2352 35.8347 37.2352 35.459C37.2352 35.207 37.262 34.9678 37.3157 34.7415C37.3717 34.5128 37.4522 34.3028 37.5572 34.1115C37.6622 33.9202 37.7882 33.7475 37.9352 33.5935C38.0845 33.4395 38.2525 33.3088 38.4392 33.2015C38.6258 33.0918 38.8288 33.009 39.0482 32.953C39.2698 32.8947 39.5055 32.8655 39.7552 32.8655C39.9418 32.8655 40.118 32.8818 40.2837 32.9145C40.4517 32.9472 40.608 32.9927 40.7527 33.051C40.8973 33.1093 41.0303 33.1805 41.1517 33.2645C41.2753 33.3462 41.3862 33.436 41.4842 33.534L41.1307 34.017C41.1097 34.0473 41.0828 34.0742 41.0502 34.0975C41.0175 34.1208 40.9732 34.1325 40.9172 34.1325C40.8612 34.1325 40.804 34.1127 40.7457 34.073C40.6897 34.0333 40.6197 33.989 40.5357 33.94C40.454 33.891 40.3502 33.8467 40.2242 33.807C40.1005 33.7673 39.943 33.7475 39.7517 33.7475C39.5393 33.7475 39.3445 33.786 39.1672 33.863C38.9898 33.94 38.837 34.052 38.7087 34.199C38.5827 34.3437 38.4847 34.5222 38.4147 34.7345C38.3447 34.9468 38.3097 35.1883 38.3097 35.459C38.3097 35.732 38.347 35.9758 38.4217 36.1905C38.4987 36.4028 38.6025 36.5825 38.7332 36.7295C38.8662 36.8765 39.0202 36.9885 39.1952 37.0655C39.3725 37.1402 39.5615 37.1775 39.7622 37.1775C39.8812 37.1775 39.9885 37.1717 40.0842 37.16C40.1822 37.1483 40.272 37.1285 40.3537 37.1005C40.4377 37.0725 40.5158 37.0363 40.5882 36.992C40.6628 36.9477 40.7375 36.8917 40.8122 36.824C40.8378 36.803 40.8647 36.7855 40.8927 36.7715C40.9207 36.7575 40.951 36.7505 40.9837 36.7505ZM44.8909 36.0715L44.3414 34.5175C44.3087 34.4358 44.2737 34.3402 44.2364 34.2305C44.2014 34.1208 44.1676 34.0018 44.1349 33.8735C44.1022 34.0042 44.0672 34.1255 44.0299 34.2375C43.9949 34.3472 43.9611 34.4428 43.9284 34.5245L43.3824 36.0715H44.8909ZM46.6549 38H45.8394C45.7484 38 45.6737 37.979 45.6154 37.937C45.5594 37.8927 45.5174 37.8367 45.4894 37.769L45.1464 36.7995H43.1234L42.7804 37.769C42.7571 37.8273 42.7162 37.881 42.6579 37.93C42.5996 37.9767 42.5261 38 42.4374 38H41.6149L43.5994 32.9215H44.6739L46.6549 38ZM50.2084 37.146V38H47.1949V32.9215H48.2449V37.146H50.2084Z" fill="#1BC773"/>
</svg>
